<?xml version="1.0" encoding="UTF-8"?><svg id="Layer_2" xmlns="http://www.w3.org/2000/svg" xmlns:xlink="http://www.w3.org/1999/xlink" viewBox="0 0 363.83 364"><defs><style>.cls-1{fill:url(#linear-gradient);}</style><linearGradient id="linear-gradient" x1="181.91" y1="394.87" x2="181.91" y2="21.91" gradientUnits="userSpaceOnUse"><stop offset="0" stop-color="#c5a1ff"/><stop offset="1" stop-color="#e6e6e6"/></linearGradient></defs><g id="Layer_12"><path class="cls-1" d="m363.75,188.19c0-5.09-1.75-10.03-4.95-13.99-11.48-14.22-39.4-48.82-44.84-55.89-.53-.69-.54-2.3-.12-3.13,4.09-8.06,28.97-52.61,40.56-73.33,4.34-7.75,3.47-17.4-2.26-24.18C342.88,6.73,329.06-.09,313.83,0c-41.65.25-83.29.3-124.94.3-4.69,0-9.25,1.47-13.05,4.22-15.08,10.89-54.4,39.3-58.14,42.18-.75.58-2.35.9-3.1.49-8.64-4.63-49.28-30.1-66.88-41.17-5.94-3.73-13.37-4.43-19.77-1.57C10.87,12.07.1,28.74.05,49.25c-.1,44.33-.03,88.65-.03,132.98v.08c0,4.88,1.6,9.62,4.55,13.51,11.22,14.73,39.56,51.94,43.35,56.86.6.78,1.08,2.35.7,3.06-2.8,5.23-27.27,47.16-39.02,67.27-4.68,8.01-3.67,18.14,2.53,25.05,8.97,10.01,22.2,15.91,37.47,15.92,43.84.02,87.69.02,131.53.02,5.17,0,10.18-1.8,14.17-5.09,13.92-11.48,46.95-38.66,51.84-42.3,1.13-.84,3.4-1.34,4.54-.77,9.19,4.57,51.77,27.67,71.88,38.61,7.76,4.22,17.41,3.35,24.05-2.49,10.18-8.94,16.21-22.33,16.21-38.26,0-41.84-.06-83.68-.08-125.52Zm-31.73-1.49c-10.86,13.81-21.34,27.16-32.14,40.89-.87-1.34-1.61-2.36-2.21-3.45-6.38-11.61-12.76-23.22-19.05-34.88-.63-1.17-1.31-3.01-.83-3.97,6.79-13.55,13.77-27.01,20.95-40.96,11.26,14.34,22.17,28.22,33.27,42.36Zm-15.42-140.16l.69.69c-16.76,32.55-33.53,65.1-50.89,98.81-2.55-10.08-4.98-18.81-6.92-27.65-1.6-7.3-5.92-11.32-13.02-12.99-9.52-2.23-19-4.68-29.81-7.37,34.08-17.56,67.02-34.52,99.96-51.49Zm-70.51,138.98c-3.72,15.34-7.49,30.67-11.49,45.94-.43,1.63-2.13,3.74-3.64,4.14-15.54,4.12-31.16,7.94-46.77,11.82-.72.18-1.47.23-2.6.41-6.01-1.5-12.36-3.09-18.71-4.67-9.82-2.44-19.64-4.9-29.47-7.29-2.36-.57-3.68-1.59-4.32-4.23-3.61-15.06-7.55-30.04-11.19-45.09-.55-2.29-.55-4.68,0-6.97,3.61-14.91,7.52-29.74,11.11-44.66.65-2.71,1.76-4,4.44-4.66,15.13-3.67,30.2-7.55,45.33-11.21,2.08-.5,4.25-.5,6.32,0,15.05,3.64,30.04,7.55,45.11,11.13,2.78.66,3.91,1.99,4.54,4.57,3.7,15.19,7.54,30.35,11.23,45.54.4,1.66.5,3.57.1,5.22Zm43.88-157.22c-1.29.87-2.01,1.46-2.82,1.88-11.52,5.95-23.02,11.94-34.62,17.74-1.28.64-3.63.83-4.63.08-8.22-6.16-16.23-12.59-25.28-19.7h67.35Zm-108.1,3.62c13.33,10.47,26.55,20.85,40.24,31.6-1.69.96-2.9,1.69-4.15,2.33-10.85,5.61-21.68,11.25-32.6,16.73-1.42.72-3.69,1.32-4.89.69-12.49-6.62-24.85-13.49-37.75-20.58,13.19-10.38,26.03-20.47,39.14-30.78Zm-137.89,8.6c34.46,18.89,68.93,37.78,104.44,57.24-10.98,2.73-20.6,5.36-30.33,7.47-7.94,1.72-12.4,6.16-14.04,14.16-1.77,8.55-4.2,16.97-6.64,26.65-18.35-35.61-36.21-70.25-54.06-104.9l.64-.62Zm-15.73,34.06l.66-.16c1.68,3.21,3.38,6.4,5.04,9.62,5.12,9.92,10.31,19.8,15.25,29.8.7,1.41.9,3.98.08,5.08-6.61,8.81-13.51,17.4-21.03,26.96v-71.29Zm5.69,114.93l29.59-43.01s.63-.86,1.68-1.73c3.93,7.61,7.78,15.06,11.62,22.51,2.87,5.56,5.8,11.08,8.53,16.7.57,1.18.94,3.05.4,4.07-7,13.09-14.19,26.08-21.67,39.72-2.29-2.88-4.21-5.28-6.12-7.7-8.01-10.19-24.04-30.58-24.04-30.58Zm10.79,133.79l-.7-.7c17.88-32.61,35.77-65.23,54.22-98.88,2.14,8.38,4.32,15.57,5.75,22.9,1.61,8.24,6.29,12.67,14.38,14.38,8.86,1.88,17.61,4.3,27.57,6.77-34.35,18.85-67.79,37.19-101.23,55.53Zm37.22,12.35l-.19-.74c10.78-5.91,21.55-11.85,32.39-17.65.92-.49,2.74-.45,3.53.15,7.57,5.76,15.01,11.7,23.32,18.23h-59.05Zm99.94-3.5c-12.91-10.14-25.64-20.15-38.64-30.36.71-.63,1.14-1.19,1.72-1.5,11.6-6.4,23.2-12.81,34.85-19.11,1.03-.56,2.71-.97,3.62-.51,12.73,6.39,25.38,12.95,38.74,19.82-13.71,10.78-26.88,21.12-40.28,31.66Zm133.88-14.91c-31.86-16.42-63.73-32.84-96.47-49.71,9.24-2.33,17.5-4.73,25.91-6.44,8.36-1.69,13.02-6.35,14.69-14.67,1.46-7.27,3.51-14.42,5.59-22.76,17.35,31.62,34.15,62.25,50.96,92.88l-.67.69Zm5.17-50.71c-2.17-4.02-5.96-8.28-5.68-12.2.26-3.72,4.84-7.16,7.58-10.68,3.99-5.11,8.04-10.17,12.74-16.1v63.82c-.47.12-.41.1-.88.23"/></g></svg>