<?xml version="1.0" encoding="utf-8"?>
<svg xmlns="http://www.w3.org/2000/svg" fill="none" height="128" viewBox="0 0 429 128" width="429">
<g clip-path="url(#clip0_19_74)">
<path d="M218.639 17.5696H225.073V15.9681L223.457 14.3522H215.437L213.821 15.9681V28.8029L215.437 30.4044H223.457L225.073 28.8029V27.2013H218.639V23.9854H225.073V20.7831H218.639V17.5696Z" fill="white"/>
<path d="M223.986 -0.000366211H214.907V9.07803H223.986V-0.000366211Z" fill="#3BBFF0"/>
<path d="M206.329 14.353V20.7864H201.512V14.353H198.31L196.694 15.969V28.8038L198.31 30.4053H201.512V23.9864H206.329V30.4053H209.546L211.148 28.8038V15.969L209.546 14.353H206.329Z" fill="white"/>
<path d="M181.181 14.353L179.565 15.969V17.5705H184.384V28.811L186 30.4124H187.601L189.202 28.811V17.5705H194.02V15.969L192.419 14.353H181.181Z" fill="white"/>
<path d="M6.41898 35.9409L0 42.3743V68.0677L6.41898 74.4867H32.11V87.3214H19.2753V80.9024H0V93.7548L6.41898 100.175H44.9615L51.3805 93.7548V68.0677L44.9615 61.6336H19.2721V48.7988H32.1068V55.2178H51.3821V42.3831L44.9615 35.9409H6.41898Z" fill="white"/>
<path d="M179.837 35.9409V100.176H224.799L231.219 93.7564V42.3743L224.799 35.9553H179.837V35.9409ZM199.109 48.7933H211.964V87.3374H199.111L199.109 48.7933Z" fill="white"/>
<path d="M237.638 35.9409V100.176H282.6L289.019 93.7564V74.4843L282.6 68.0677L289.019 61.6487V42.3743L282.6 35.9553H237.638V35.9409ZM256.91 74.4851H269.765V87.3374H256.912V74.4851M256.912 61.632V48.7973H269.765V61.632H256.912Z" fill="white"/>
<path d="M301.874 35.9409L295.455 42.3599V93.742L301.874 100.161H340.404L346.823 93.742V42.3599L340.404 35.9409H301.874ZM314.712 48.7933H327.565V87.3374H314.712V48.7933Z" fill="white"/>
<path d="M416.757 55.9329L404.626 68.0637L416.757 80.1945L428.888 68.0637L416.757 55.9329Z" fill="#3BBFF0"/>
<path d="M82.7754 103.737L70.6446 115.868L82.7754 127.999L94.9062 115.868L82.7754 103.737Z" fill="#3BBFF0"/>
<path d="M385.366 35.9409V55.213L378.947 61.632L372.528 55.213V35.9409H359.675L353.256 42.3743V61.632L359.675 68.0662L353.256 74.4851V93.7564L359.675 100.176H372.528V80.9024L378.947 74.4835L385.366 80.9024V100.175H398.217L404.636 93.7548V74.4851L398.217 68.0677L404.636 61.6336V42.3743L398.217 35.9409H385.366Z" fill="white"/>
<path d="M154.147 35.9409V55.213L134.875 35.9409H122.04L115.621 42.3743V93.7564L122.04 100.176H134.875V61.632L154.147 80.9041V100.176H167L173.419 93.7564V42.3743L167 35.9409H154.147Z" fill="white"/>
<path d="M102.764 36.0844H64.2344L57.8154 42.5033V93.8855L64.2344 100.304H77.0867V74.6134H89.9214V100.319H102.756L109.175 93.8998V42.5177L102.764 36.0844ZM83.4921 64.1351L75.2858 55.9289L83.4921 47.7225L91.6984 55.9289L83.4921 64.1351Z" fill="white"/>
</g>
<defs>
<clipPath id="clip0_19_74">
<rect fill="white" height="127.999" transform="translate(0 -0.000366211)" width="428.888"/>
</clipPath>
</defs>
</svg>